<?xml version="1.0" encoding="UTF-8"?>
<svg width="220px" height="80px" viewBox="0 0 220 80" version="1.1" xmlns="http://www.w3.org/2000/svg" xmlns:xlink="http://www.w3.org/1999/xlink">
    <!-- Generator: Sketch 39.1 (31720) - http://www.bohemiancoding.com/sketch -->
    <title>logo-3</title>
    <desc>Created with Sketch.</desc>
    <defs>
        <polygon id="path-1" points="20 0 40 40 0 40"></polygon>
        <mask id="mask-2" maskContentUnits="userSpaceOnUse" maskUnits="objectBoundingBox" x="0" y="0" width="40" height="40" fill="white">
            <use xlink:href="#path-1"></use>
        </mask>
        <polygon id="path-3" points="20 40 40 80 0 80"></polygon>
        <mask id="mask-4" maskContentUnits="userSpaceOnUse" maskUnits="objectBoundingBox" x="0" y="0" width="40" height="40" fill="white">
            <use xlink:href="#path-3"></use>
        </mask>
        <polygon id="path-5" points="40 40 60 80 20 80"></polygon>
        <mask id="mask-6" maskContentUnits="userSpaceOnUse" maskUnits="objectBoundingBox" x="0" y="0" width="40" height="40" fill="white">
            <use xlink:href="#path-5"></use>
        </mask>
        <polygon id="path-7" points="40 0 60 40 20 40"></polygon>
        <mask id="mask-8" maskContentUnits="userSpaceOnUse" maskUnits="objectBoundingBox" x="0" y="0" width="40" height="40" fill="white">
            <use xlink:href="#path-7"></use>
        </mask>
        <polygon id="path-9" points="40 0 60 40 20 40"></polygon>
        <mask id="mask-10" maskContentUnits="userSpaceOnUse" maskUnits="objectBoundingBox" x="0" y="0" width="40" height="40" fill="white">
            <use xlink:href="#path-9"></use>
        </mask>
        <polygon id="path-11" points="40 40 60 80 20 80"></polygon>
        <mask id="mask-12" maskContentUnits="userSpaceOnUse" maskUnits="objectBoundingBox" x="0" y="0" width="40" height="40" fill="white">
            <use xlink:href="#path-11"></use>
        </mask>
        <polygon id="path-13" points="20 40 40 80 0 80"></polygon>
        <mask id="mask-14" maskContentUnits="userSpaceOnUse" maskUnits="objectBoundingBox" x="0" y="0" width="40" height="40" fill="white">
            <use xlink:href="#path-13"></use>
        </mask>
        <polygon id="path-15" points="60 0 80 40 40 40"></polygon>
        <mask id="mask-16" maskContentUnits="userSpaceOnUse" maskUnits="objectBoundingBox" x="0" y="0" width="40" height="40" fill="white">
            <use xlink:href="#path-15"></use>
        </mask>
        <polygon id="path-17" points="40 0 60 40 20 40"></polygon>
        <mask id="mask-18" maskContentUnits="userSpaceOnUse" maskUnits="objectBoundingBox" x="0" y="0" width="40" height="40" fill="white">
            <use xlink:href="#path-17"></use>
        </mask>
        <polygon id="path-19" points="40 40 60 80 20 80"></polygon>
        <mask id="mask-20" maskContentUnits="userSpaceOnUse" maskUnits="objectBoundingBox" x="0" y="0" width="40" height="40" fill="white">
            <use xlink:href="#path-19"></use>
        </mask>
        <polygon id="path-21" points="20 40 40 80 0 80"></polygon>
        <mask id="mask-22" maskContentUnits="userSpaceOnUse" maskUnits="objectBoundingBox" x="0" y="0" width="40" height="40" fill="white">
            <use xlink:href="#path-21"></use>
        </mask>
        <polygon id="path-23" points="60 0 80 40 40 40"></polygon>
        <mask id="mask-24" maskContentUnits="userSpaceOnUse" maskUnits="objectBoundingBox" x="0" y="0" width="40" height="40" fill="white">
            <use xlink:href="#path-23"></use>
        </mask>
    </defs>
    <g id="Symbols" stroke="none" stroke-width="1" fill="none" fill-rule="evenodd">
        <g id="logo-3" stroke-width="2" stroke="#FFFFFF">
            <g id="logo-2">
                <g id="c">
                    <use id="Rectangle" mask="url(#mask-2)" fill="#41C5A9" xlink:href="#path-1"></use>
                    <use id="Rectangle-Copy-2" mask="url(#mask-4)" fill="#FF6373" transform="translate(20.000000, 60.000000) scale(1, -1) translate(-20.000000, -60.000000) " xlink:href="#path-3"></use>
                    <use id="Rectangle-Copy-3" mask="url(#mask-6)" fill="#13CEEF" xlink:href="#path-5"></use>
                    <use id="Rectangle-Copy" mask="url(#mask-8)" fill="#B375F5" transform="translate(40.000000, 20.000000) scale(1, -1) translate(-40.000000, -20.000000) " xlink:href="#path-7"></use>
                </g>
                <g id="h-1" transform="translate(80.000000, 0.000000)">
                    <use id="Rectangle-Copy-7" mask="url(#mask-10)" fill="#13CEEF" xlink:href="#path-9"></use>
                    <use id="Rectangle-Copy-6" mask="url(#mask-12)" fill="#FF6373" transform="translate(40.000000, 60.000000) scale(1, -1) translate(-40.000000, -60.000000) " xlink:href="#path-11"></use>
                    <use id="Rectangle-Copy-5" mask="url(#mask-14)" fill="#41C5A9" xlink:href="#path-13"></use>
                    <use id="Rectangle-Copy-4" mask="url(#mask-16)" fill="#B375F5" transform="translate(60.000000, 20.000000) scale(1, -1) translate(-60.000000, -20.000000) " xlink:href="#path-15"></use>
                </g>
                <g id="h-2" transform="translate(140.000000, 0.000000)">
                    <use id="Rectangle-Copy-11" mask="url(#mask-18)" fill="#FF6373" xlink:href="#path-17"></use>
                    <use id="Rectangle-Copy-10" mask="url(#mask-20)" fill="#13CEEF" transform="translate(40.000000, 60.000000) scale(1, -1) translate(-40.000000, -60.000000) " xlink:href="#path-19"></use>
                    <use id="Rectangle-Copy-9" mask="url(#mask-22)" fill="#B375F5" xlink:href="#path-21"></use>
                    <use id="Rectangle-Copy-8" mask="url(#mask-24)" fill="#41C5A9" transform="translate(60.000000, 20.000000) scale(1, -1) translate(-60.000000, -20.000000) " xlink:href="#path-23"></use>
                </g>
            </g>
        </g>
    </g>
</svg>